<!DOCTYPE svg PUBLIC "-//W3C//DTD SVG 20010904//EN" "http://www.w3.org/TR/2001/REC-SVG-20010904/DTD/svg10.dtd">
<svg version="1.0" xmlns="http://www.w3.org/2000/svg" width="1125px" height="1032px" viewBox="0 0 11250 10320" preserveAspectRatio="xMidYMid meet">
<g id="layer1" fill="#0c0b0a" stroke="none">
 <path d="M4340 5420 c-47 -8 -57 -15 -77 -53 -15 -28 -17 -65 -15 -314 2 -243 0 -286 -13 -307 -13 -20 -16 -63 -16 -272 1 -210 -2 -264 -19 -344 -26 -125 -26 -176 0 -190 10 -6 104 -13 207 -16 103 -3 209 -10 235 -16 63 -13 83 -5 114 47 53 91 55 164 6 210 -50 48 -126 85 -173 85 -93 0 -118 10 -140 51 -10 21 -19 58 -19 83 0 52 31 130 55 140 28 10 80 7 125 -9 46 -16 57 -13 118 33 31 24 32 26 32 101 0 71 -2 80 -28 109 -36 40 -89 62 -149 62 -48 0 -84 16 -110 48 -9 10 -13 50 -13 113 0 93 1 98 26 118 32 25 95 28 147 6 54 -22 74 -19 118 23 38 35 41 42 46 103 6 73 -5 105 -54 151 -28 27 -35 28 -154 33 -68 3 -144 7 -169 9 -25 1 -61 0 -80 -4z"/>
 <path d="M5740 5411 c-36 -10 -110 -123 -110 -169 0 -20 -4 -54 -9 -75 -8 -31 -4 -53 19 -119 16 -45 39 -95 51 -111 23 -32 48 -127 49 -188 0 -20 13 -63 29 -95 15 -32 33 -77 38 -99 33 -128 57 -219 77 -290 13 -44 31 -116 40 -160 10 -44 26 -120 36 -170 11 -49 26 -126 34 -170 36 -194 36 -196 62 -205 14 -6 105 -6 221 -1 214 9 265 20 282 63 25 62 45 187 51 320 l6 148 42 82 c52 104 62 143 62 240 0 43 6 95 14 115 8 21 17 52 20 69 3 17 16 55 29 85 38 85 45 110 50 172 4 42 12 66 31 87 13 17 28 40 32 52 4 13 18 40 31 61 21 34 31 64 50 159 4 22 -5 42 -47 98 l-52 71 -101 -3 -101 -3 -24 -35 c-12 -19 -32 -46 -43 -60 -18 -21 -20 -34 -14 -88 7 -78 -14 -131 -73 -184 l-42 -38 -159 0 c-148 0 -162 2 -216 25 -76 34 -91 55 -98 135 -9 109 -43 197 -94 247 -42 40 -49 43 -96 42 -29 -1 -63 -4 -77 -8z m657 -803 c18 -13 35 -30 38 -38 8 -19 -13 -145 -30 -190 -8 -19 -23 -66 -34 -105 -36 -125 -75 -148 -119 -68 -28 51 -86 218 -101 291 -25 121 -15 132 117 132 83 0 100 -3 129 -22z"/>
 <path d="M7806 5398 c-25 -39 -36 -86 -36 -158 0 -36 -5 -81 -10 -100 -14 -47 -14 -1244 0 -1248 6 -2 10 -71 10 -172 0 -200 -12 -186 154 -175 80 5 129 14 179 32 68 26 69 26 63 57 -39 199 -54 441 -55 884 -1 276 2 349 13 377 21 51 47 54 167 25 68 -16 94 -3 125 67 36 83 41 137 16 220 -11 37 -23 80 -26 95 -3 15 -15 29 -26 33 -10 3 -85 10 -165 14 -140 8 -147 9 -174 35 -26 25 -38 28 -124 33 -93 6 -95 5 -111 -19z"/>
 <path d="M3918 5385 c-6 -14 -14 -25 -17 -25 -4 0 -7 -9 -8 -21 -1 -11 -13 -35 -26 -53 -42 -54 -196 -206 -210 -206 -7 0 -28 -13 -47 -30 -78 -66 -94 -27 -64 157 6 38 3 46 -41 108 l-48 67 -84 -4 c-93 -3 -91 -2 -122 -84 -19 -49 -19 -66 -9 -436 9 -333 8 -405 -6 -540 -17 -161 -21 -285 -10 -312 12 -31 91 -56 175 -56 88 0 144 20 153 54 3 12 6 74 6 139 0 97 3 119 15 124 21 8 122 -104 152 -169 24 -52 121 -198 132 -198 3 0 29 21 56 46 28 26 67 58 88 72 34 23 37 28 37 72 0 44 -32 119 -80 190 -6 8 -23 35 -38 59 -15 24 -43 62 -63 85 -20 22 -49 61 -64 86 -15 25 -48 66 -72 93 -70 76 -63 87 218 360 51 50 91 79 125 91 68 26 84 42 84 85 0 57 -45 187 -83 244 -17 24 -24 27 -78 27 -54 0 -61 -2 -71 -25z"/>
 <path d="M8916 5400 c-16 -5 -46 -25 -65 -44 -20 -20 -59 -43 -86 -52 -86 -30 -143 -103 -231 -299 -32 -73 -44 -224 -24 -320 7 -33 18 -103 25 -155 7 -52 20 -113 29 -135 63 -146 134 -277 196 -360 l72 -97 36 8 c20 5 60 9 87 9 55 0 128 36 162 79 10 13 33 31 51 40 51 26 196 176 225 231 14 28 35 64 46 80 13 19 21 46 21 73 0 24 7 57 16 74 9 18 16 55 16 88 0 33 -7 70 -16 88 -11 21 -16 58 -16 114 0 77 -2 86 -29 118 -16 20 -36 56 -44 80 -8 25 -42 101 -75 170 -59 123 -61 125 -114 152 -30 16 -78 32 -107 38 -28 5 -60 14 -71 20 -22 12 -63 12 -104 0z m131 -387 c20 -16 40 -35 44 -43 4 -8 26 -47 48 -87 33 -57 41 -81 41 -121 0 -27 7 -69 15 -92 26 -74 23 -85 -70 -235 -51 -82 -74 -100 -141 -114 -67 -13 -100 -5 -121 28 -41 65 -92 172 -97 203 -22 123 -25 199 -10 251 9 28 21 70 27 92 16 53 64 116 107 138 49 25 111 18 157 -20z"/>
 <path d="M275 5362 c-47 -29 -58 -47 -52 -89 3 -21 10 -71 15 -112 9 -64 14 -78 44 -108 19 -19 50 -40 69 -46 51 -19 169 -99 214 -147 22 -23 60 -56 85 -73 132 -90 179 -151 180 -229 0 -34 -3 -38 -25 -38 -13 0 -55 14 -92 31 -38 18 -81 35 -98 40 -16 4 -77 24 -135 44 -122 43 -167 42 -247 -2 -54 -30 -65 -41 -94 -97 -18 -34 -19 -44 -9 -84 6 -25 24 -61 40 -79 17 -18 32 -46 35 -61 13 -60 46 -111 101 -158 32 -27 88 -78 124 -114 36 -36 89 -87 118 -113 29 -27 64 -65 80 -85 33 -45 31 -43 117 -117 39 -33 79 -70 90 -82 33 -37 77 -31 107 15 58 86 138 233 138 252 0 14 -3 17 -120 115 -52 43 -106 90 -120 103 -14 14 -35 31 -48 40 -17 11 -22 23 -20 46 2 26 9 33 39 43 29 9 44 8 87 -6 29 -10 55 -21 59 -25 3 -3 29 -6 57 -6 81 0 108 23 166 142 28 56 50 114 50 130 0 33 -31 98 -85 178 -20 30 -50 80 -65 110 -31 61 -47 79 -104 108 -21 12 -68 48 -103 82 -35 34 -78 67 -96 75 -39 16 -141 121 -152 155 -4 14 -41 60 -83 103 l-77 77 -80 0 c-60 0 -87 -5 -110 -18z"/>
 <path d="M2564 5366 c-11 -8 -26 -34 -33 -58 -7 -24 -28 -74 -47 -112 -19 -39 -34 -76 -34 -83 0 -18 -129 -153 -146 -153 -17 0 -15 -11 -18 170 -1 90 -6 153 -14 167 -11 21 -110 73 -138 73 -24 0 -85 -62 -110 -113 -29 -55 -28 -63 1 -282 13 -97 14 -134 5 -191 -6 -41 -8 -114 -5 -175 5 -72 2 -137 -9 -213 -9 -60 -16 -172 -16 -248 0 -135 0 -138 23 -142 50 -10 380 -15 428 -6 45 9 60 19 116 76 120 122 166 280 128 439 -5 17 -37 61 -76 102 -86 89 -105 130 -89 188 10 35 20 46 58 67 42 22 49 32 67 84 15 43 35 75 78 119 98 103 103 194 13 273 -33 29 -43 32 -99 32 -38 0 -71 -6 -83 -14z m-163 -846 c26 -27 49 -101 49 -154 0 -36 -49 -76 -94 -76 -60 0 -71 11 -86 89 -11 59 -11 78 0 112 24 73 78 85 131 29z"/>
 <path d="M2948 5341 c-55 -35 -71 -62 -89 -154 -10 -53 -10 -86 -2 -155 15 -115 16 -463 2 -581 -8 -70 -8 -109 1 -155 11 -53 9 -73 -9 -156 -25 -111 -26 -153 -6 -173 8 -8 47 -21 86 -27 99 -17 183 0 205 41 18 36 19 164 0 215 -9 28 -16 127 -21 340 -6 265 -5 304 9 331 12 23 17 76 22 201 4 93 4 181 0 196 -3 14 -23 44 -42 66 -46 51 -88 54 -156 11z"/>
 <path d="M1508 5321 c-34 -28 -51 -101 -42 -195 3 -39 2 -89 -4 -112 -6 -28 -5 -63 5 -120 11 -60 13 -126 9 -272 -8 -246 -15 -261 -116 -262 -19 0 -49 -9 -67 -19 -32 -20 -42 -48 -57 -166 -5 -47 22 -124 50 -140 11 -5 21 -13 24 -17 3 -4 128 -8 277 -9 265 -2 271 -2 302 20 50 36 81 99 81 163 0 110 -42 163 -133 170 -32 3 -63 10 -70 17 -14 14 -20 627 -6 731 10 81 -6 182 -34 208 -14 13 -41 18 -106 20 -75 3 -89 1 -113 -17z"/>
 <path d="M9784 5324 c-19 -9 -39 -32 -52 -60 -20 -39 -22 -61 -22 -188 0 -105 4 -153 15 -179 23 -55 22 -425 -1 -473 -20 -43 -59 -64 -117 -64 -57 0 -84 -28 -96 -101 -5 -30 -14 -66 -20 -81 -8 -22 -5 -41 14 -95 14 -37 25 -69 25 -70 0 -2 122 -3 271 -3 270 0 270 0 325 26 77 36 109 86 109 170 0 53 -4 69 -30 106 l-31 43 -77 5 c-42 3 -80 9 -84 14 -7 6 -8 258 -2 361 0 17 -4 62 -11 101 -14 76 -9 127 25 253 14 52 15 71 6 96 -6 17 -11 38 -11 47 0 27 -39 66 -73 73 -17 4 -51 13 -75 21 -52 17 -50 17 -88 -2z"/>
 <path d="M10548 5273 c-34 -40 -42 -72 -49 -197 -5 -108 -3 -140 12 -200 20 -77 23 -193 10 -359 -7 -87 -11 -101 -34 -125 -21 -20 -38 -27 -86 -30 -55 -4 -63 -7 -80 -36 -22 -36 -45 -172 -40 -236 l4 -45 105 -5 c58 -3 194 -2 303 2 222 8 226 9 303 90 48 49 61 92 44 143 -17 52 -69 81 -153 87 -99 6 -99 6 -97 184 2 200 2 198 -6 366 -5 122 -3 155 10 187 14 35 14 43 1 68 -8 15 -15 33 -15 39 0 21 -38 45 -101 65 -79 24 -112 24 -131 2z"/>
 <path d="M4917 4677 c-47 -38 -59 -129 -37 -282 8 -53 17 -76 36 -95 l25 -25 212 1 c117 0 224 3 239 7 15 4 40 24 55 44 26 34 28 43 28 134 l0 97 -40 40 c-22 21 -46 46 -53 55 -11 14 -35 17 -150 17 -100 1 -144 5 -162 15 -40 23 -120 19 -153 -8z"/>
 <path d="M7035 4653 c-10 -24 -19 -265 -11 -297 3 -14 20 -39 36 -56 26 -27 36 -30 87 -30 32 0 74 5 93 11 19 6 99 12 178 13 l144 1 29 33 c28 31 29 36 29 129 l0 96 -60 59 -60 58 -229 0 c-208 0 -230 -2 -236 -17z"/>
 </g>
<g id="layer2" fill="#9f2c29" stroke="none">
 <path d="M2887 10043 c-2 -4 -8 -26 -12 -48 -9 -55 -57 -130 -119 -187 -28 -27 -54 -48 -58 -48 -3 0 -13 -6 -20 -13 -36 -36 -81 -47 -197 -48 -88 0 -127 -5 -161 -18 -43 -18 -45 -21 -50 -64 -10 -82 -83 -131 -225 -153 -231 -36 -247 -43 -264 -106 -9 -31 -9 -58 -1 -97 17 -93 16 -97 -30 -93 -34 4 -44 0 -69 -27 -16 -17 -32 -44 -36 -60 -3 -16 -15 -37 -25 -46 -18 -16 -21 -16 -63 4 -27 13 -63 21 -95 21 l-52 0 0 -95 0 -95 33 -20 c25 -16 50 -20 115 -20 45 0 82 -2 82 -4 0 -10 -26 -79 -50 -131 -45 -99 -45 -107 -3 -162 38 -50 203 -298 203 -306 0 -2 24 -47 53 -98 49 -86 78 -140 175 -318 19 -36 52 -93 73 -128 22 -35 39 -66 39 -70 0 -3 11 -21 25 -39 22 -29 29 -32 60 -27 45 7 103 -20 116 -55 12 -32 5 -62 -25 -110 -31 -49 -54 -236 -37 -300 14 -51 55 -77 112 -69 29 4 46 -1 79 -23 73 -49 95 -101 66 -158 -20 -40 -28 -96 -17 -125 12 -31 72 -99 112 -128 l29 -20 38 41 c24 24 45 38 53 35 8 -4 43 -50 78 -104 64 -99 101 -178 101 -217 0 -13 14 -31 38 -48 48 -33 107 -101 199 -230 127 -177 125 -176 158 -126 11 16 29 34 41 40 32 18 55 -2 100 -88 33 -65 44 -78 71 -84 33 -8 75 -54 87 -95 4 -12 20 -38 36 -58 46 -58 40 -76 -17 -54 -82 31 -153 -2 -153 -71 0 -37 16 -66 60 -111 14 -14 41 -45 60 -69 93 -116 132 -160 140 -160 6 0 37 28 69 61 l59 62 -32 46 c-17 25 -34 48 -38 49 -16 7 -7 32 14 43 19 10 25 8 45 -17 13 -16 23 -32 23 -36 0 -18 28 -6 38 17 10 23 17 25 71 25 54 0 61 -3 78 -27 24 -36 40 -73 64 -148 24 -78 24 -123 -1 -150 l-20 -21 60 -82 c33 -45 65 -82 70 -82 8 0 10 70 8 218 -4 301 -1 306 192 304 63 -1 152 -4 197 -8 80 -6 84 -8 118 -45 42 -47 49 -73 42 -147 -5 -50 -11 -62 -46 -94 -44 -42 -64 -45 -118 -23 -52 22 -115 19 -147 -6 -25 -20 -26 -25 -26 -118 0 -63 4 -103 13 -113 26 -32 62 -48 110 -48 60 0 113 -22 149 -62 26 -29 28 -38 28 -109 0 -75 -1 -77 -32 -101 -61 -46 -72 -49 -118 -33 -24 8 -46 15 -49 15 -4 0 -15 -25 -25 -55 -9 -30 -33 -78 -52 -107 -30 -43 -34 -58 -27 -78 10 -28 38 -37 122 -39 57 -1 129 -35 183 -86 49 -46 47 -119 -6 -210 -31 -52 -51 -60 -114 -47 -26 6 -132 13 -235 16 -103 3 -197 11 -208 16 -25 14 -26 12 -126 -126 -130 -180 -177 -255 -206 -330 -39 -100 -55 -129 -141 -256 -77 -112 -125 -177 -173 -231 -24 -28 -24 -29 -8 -72 10 -26 14 -52 10 -67 -13 -43 -58 -106 -89 -124 -17 -9 -59 -43 -93 -74 -33 -32 -93 -77 -131 -101 -59 -37 -76 -54 -108 -109 -66 -114 -109 -169 -248 -313 -47 -48 -101 -107 -121 -131 -52 -64 -89 -78 -193 -76 -48 1 -94 2 -103 1 -13 -1 -17 -20 -23 -104 -10 -158 -26 -197 -102 -241 -49 -29 -67 -70 -72 -161 l-4 -80 61 -90 c34 -49 98 -139 144 -200 l83 -110 67 -3 66 -3 3 -92 3 -92 55 3 c30 1 85 10 123 19 62 14 72 14 135 -1 87 -21 114 -20 161 3 56 29 137 96 157 131 18 30 19 30 105 30 184 0 316 73 557 307 l32 31 -6 99 -7 98 97 -3 98 -4 43 45 c23 25 57 65 74 90 28 42 31 52 31 126 0 72 2 82 23 96 12 8 78 71 147 138 121 119 127 123 193 141 120 33 228 117 380 298 27 31 142 150 258 264 199 198 209 210 209 246 0 21 3 38 6 38 30 0 204 -160 251 -231 23 -35 27 -37 92 -41 69 -5 171 -48 171 -72 0 -6 -9 -38 -20 -70 -32 -95 -28 -114 36 -187 122 -139 184 -211 296 -349 47 -58 94 -114 105 -125 10 -11 29 -33 42 -50 60 -79 221 -255 335 -367 84 -83 103 -91 156 -63 52 27 49 33 -105 224 -55 68 -111 138 -125 156 -14 17 -32 38 -40 47 -8 8 -37 41 -65 73 -77 91 -222 252 -300 333 -87 91 -91 98 -69 123 23 25 33 24 70 -9 17 -15 59 -52 94 -82 131 -113 214 -197 272 -275 33 -44 62 -85 65 -92 7 -19 72 -45 103 -41 23 2 35 -5 61 -37 51 -64 69 -112 69 -187 l0 -68 54 -30 c56 -32 149 -123 181 -177 22 -37 56 -43 93 -17 31 22 35 15 18 -34 -8 -22 -18 -61 -22 -87 l-6 -46 117 -119 c113 -115 117 -121 111 -152 -22 -101 -24 -97 56 -179 96 -100 199 -175 327 -238 57 -28 117 -64 132 -81 55 -57 69 -62 128 -44 54 16 66 14 136 -17 11 -5 61 -23 110 -40 97 -33 181 -77 222 -115 15 -14 29 -23 32 -22 108 56 382 187 456 218 124 51 131 58 102 117 -21 43 -21 45 -3 91 32 84 30 131 -13 227 -5 11 -46 128 -90 260 -44 132 -92 273 -106 314 -14 40 -24 79 -21 86 2 7 21 16 42 20 50 9 99 35 162 85 52 40 52 41 52 98 0 46 -5 62 -23 82 -30 33 -88 112 -170 233 -87 127 -132 183 -187 233 -56 51 -65 54 -170 68 l-85 11 -6 48 c-4 43 -12 55 -62 104 -51 50 -57 60 -52 85 10 42 -9 58 -66 58 -43 0 -52 4 -83 38 -51 55 -63 69 -166 203 -267 347 -397 454 -572 474 l-57 6 5 77 5 77 -58 85 c-55 80 -62 86 -140 125 -62 30 -102 59 -159 115 -71 70 -205 220 -284 319 -19 24 -40 48 -45 55 -49 53 -125 156 -125 169 0 9 7 42 15 74 22 82 19 112 -15 163 -16 25 -30 48 -30 51 0 29 329 380 921 984 108 110 214 218 235 241 382 405 492 531 716 814 75 95 287 394 303 427 14 29 14 36 -6 88 -11 31 -19 62 -16 69 10 26 209 266 250 301 58 51 90 66 177 84 73 16 75 17 90 56 28 75 79 149 159 234 87 92 82 81 106 265 4 27 9 55 12 62 12 32 -178 7 -381 -50 l-89 -25 -27 27 c-42 42 -84 62 -128 62 -32 0 -42 4 -47 20 -12 37 -64 80 -98 80 -36 0 -110 31 -123 51 -5 8 -11 41 -14 74 -4 52 -8 60 -26 63 -12 2 -28 -4 -36 -12 -24 -24 -91 -56 -116 -56 -19 0 -23 4 -17 18 29 64 44 124 45 165 0 43 -5 54 -34 83 -38 38 -50 40 -118 19 -42 -12 -58 -12 -124 0 -165 32 -193 21 -260 -101 -31 -57 -72 -104 -91 -104 -9 0 -13 19 -13 70 0 51 -4 70 -13 70 -19 0 -124 -75 -201 -143 -85 -75 -204 -224 -431 -537 -76 -105 -277 -328 -387 -429 -21 -19 -28 -35 -28 -62 0 -45 -35 -91 -86 -115 -46 -22 -114 -99 -169 -192 -48 -80 -86 -128 -123 -154 -12 -8 -63 -75 -113 -148 -50 -74 -115 -163 -143 -199 -28 -36 -56 -73 -63 -81 -94 -122 -273 -339 -342 -416 -75 -84 -99 -114 -168 -218 -79 -116 -97 -128 -145 -96 -92 63 -188 185 -188 239 0 18 -224 342 -242 349 -4 2 -8 8 -8 13 0 4 -35 57 -78 116 -42 59 -85 119 -94 133 -10 14 -36 50 -57 80 -22 30 -93 134 -157 230 -65 96 -121 177 -126 178 -4 2 -8 8 -8 13 0 5 -19 39 -43 76 -71 112 -192 313 -232 388 -80 148 -85 155 -116 155 -50 0 -103 69 -159 205 -5 11 -16 45 -25 75 -48 159 -54 167 -140 172 -36 3 -40 6 -43 31 -3 28 11 52 72 121 14 16 26 31 26 34 0 11 -84 139 -109 165 -58 63 -122 74 -180 30 -20 -15 -47 -38 -61 -50 -49 -45 -71 -33 -146 75 -193 278 -176 246 -128 238 34 -7 120 -48 134 -65 11 -13 62 -31 88 -31 47 0 53 10 42 74 -20 125 -36 159 -150 314 l-110 150 0 65 c0 62 -2 67 -37 104 -21 22 -67 61 -103 87 -82 61 -97 85 -129 210 l-27 101 -54 6 c-58 6 -127 25 -147 41 -6 5 -13 5 -16 1z m345 -760 c10 -9 18 -19 18 -23 0 -16 90 -167 109 -184 46 -41 7 -64 -42 -26 -14 12 -53 62 -86 113 -34 51 -65 97 -71 104 -5 7 -10 17 -10 23 0 16 62 12 82 -7z m2681 -3906 c51 -50 85 -138 94 -247 7 -80 22 -101 98 -135 54 -23 68 -25 216 -25 l159 0 42 38 c59 53 80 106 73 184 -6 54 -4 67 14 88 11 14 31 41 43 60 l24 35 101 3 101 3 52 -71 c42 -56 51 -76 47 -98 -19 -95 -29 -125 -50 -159 -13 -21 -27 -48 -31 -61 -4 -12 -19 -35 -32 -52 -19 -21 -27 -45 -31 -87 -5 -62 -12 -87 -50 -172 -13 -30 -26 -68 -29 -85 -3 -17 -12 -48 -20 -69 -8 -20 -14 -72 -14 -115 0 -97 -10 -136 -62 -240 l-42 -82 -6 -148 c-6 -133 -26 -258 -51 -320 -17 -43 -68 -54 -282 -63 -116 -5 -207 -5 -221 1 -26 9 -26 11 -62 205 -8 44 -23 121 -34 170 -10 50 -26 126 -36 170 -9 44 -27 116 -40 160 -20 71 -44 162 -77 290 -5 22 -23 67 -38 99 -16 32 -29 75 -29 95 -1 61 -26 156 -49 188 -12 16 -35 66 -51 111 -23 66 -27 88 -19 119 5 21 9 55 9 75 0 27 12 54 43 100 46 67 61 75 144 77 47 1 54 -2 96 -42z m-843 -692 c18 -10 62 -14 162 -15 115 0 139 -3 150 -17 7 -9 31 -34 53 -55 l40 -40 0 -97 c0 -91 -2 -100 -28 -134 -15 -20 -40 -40 -55 -44 -15 -4 -122 -7 -239 -7 l-212 -1 -25 25 c-19 19 -28 42 -36 95 -31 216 3 305 115 305 28 -1 61 -7 75 -15z"/>
 <path d="M6156 4614 c-28 -27 -16 -105 40 -267 77 -225 125 -245 175 -72 11 39 26 86 34 105 17 45 38 171 30 190 -3 8 -20 25 -38 38 -29 19 -46 22 -129 22 -74 0 -100 -4 -112 -16z"/>
 <path d="M3994 5013 c-52 -48 -79 -84 -69 -91 6 -4 22 -23 37 -44 15 -20 33 -42 41 -50 7 -7 41 -49 77 -93 79 -98 121 -145 132 -145 4 0 8 31 8 68 0 44 5 75 15 88 21 28 19 37 -22 80 -20 21 -68 78 -105 127 -38 48 -73 87 -77 87 -4 0 -20 -12 -37 -27z"/>
 </g>
<g id="layer3" fill="#ffffff" stroke="none">
 <path d="M0 5160 l0 -5160 5625 0 5625 0 0 5160 0 5160 -5625 0 -5625 0 0 -5160z m2955 4860 c22 -7 64 -16 95 -19 l54 -6 27 -101 c32 -125 47 -149 129 -210 36 -26 82 -65 103 -87 35 -37 37 -42 37 -104 l0 -65 110 -150 c114 -155 130 -189 150 -314 11 -64 5 -74 -42 -74 -26 0 -77 18 -88 31 -14 17 -100 58 -134 65 -44 8 -45 12 19 -81 183 -264 175 -255 203 -255 15 0 38 10 52 23 131 120 198 104 309 -74 22 -36 41 -68 41 -71 0 -3 -12 -18 -26 -34 -61 -69 -75 -93 -72 -121 3 -25 7 -28 43 -31 86 -5 92 -13 140 -172 9 -30 20 -64 25 -75 56 -136 109 -205 159 -205 31 0 36 -7 116 -155 40 -75 161 -276 232 -388 24 -37 43 -71 43 -76 0 -5 4 -11 8 -13 5 -1 61 -82 126 -178 64 -96 135 -200 157 -230 21 -30 47 -66 57 -80 9 -14 52 -74 94 -133 43 -59 78 -112 78 -116 0 -5 4 -11 8 -13 18 -7 242 -331 242 -349 0 -54 96 -176 188 -239 48 -32 66 -20 145 96 69 104 93 134 168 218 69 77 248 294 342 416 7 8 35 45 63 81 28 36 93 125 143 199 50 73 101 140 113 148 37 26 75 74 123 154 55 93 123 170 169 192 51 24 86 70 86 115 0 27 7 43 28 62 110 101 311 324 387 429 227 313 346 462 431 537 77 68 182 143 201 143 9 0 13 -19 13 -70 0 -51 4 -70 13 -70 19 0 60 47 91 104 67 122 95 133 260 101 66 -12 82 -12 124 0 68 21 80 19 118 -19 29 -29 34 -40 34 -83 -1 -41 -16 -101 -45 -165 -6 -14 -2 -18 17 -18 25 0 92 32 116 56 8 8 24 14 36 12 18 -3 22 -11 26 -63 3 -33 9 -66 14 -74 13 -20 87 -51 123 -51 34 0 86 -43 98 -80 5 -16 15 -20 47 -20 44 0 86 -20 128 -62 l27 -27 89 25 c203 57 393 82 381 50 -3 -7 -8 -35 -12 -62 -24 -184 -19 -173 -106 -265 -80 -85 -131 -159 -159 -234 -15 -39 -17 -40 -90 -56 -87 -18 -119 -33 -177 -84 -41 -35 -240 -275 -250 -301 -3 -7 5 -38 16 -69 20 -52 20 -59 6 -88 -16 -33 -228 -332 -303 -427 -224 -283 -334 -409 -716 -814 -21 -23 -127 -131 -235 -241 -592 -604 -921 -955 -921 -984 0 -3 14 -26 30 -51 34 -51 37 -81 15 -163 -8 -32 -15 -65 -15 -74 0 -13 76 -116 125 -169 5 -7 26 -31 45 -55 79 -99 213 -249 284 -319 57 -56 97 -85 159 -115 78 -39 85 -45 140 -125 l58 -85 -5 -77 -5 -77 57 -6 c175 -20 305 -127 572 -474 103 -134 115 -148 166 -203 31 -34 40 -38 83 -38 57 0 76 -16 66 -58 -5 -25 1 -35 52 -85 50 -49 58 -61 62 -104 l6 -48 85 -11 c105 -14 114 -17 170 -68 55 -50 100 -106 187 -233 82 -121 140 -200 170 -233 18 -20 23 -36 23 -82 0 -57 0 -58 -52 -98 -63 -50 -112 -76 -162 -85 -21 -4 -40 -13 -42 -20 -3 -7 7 -46 21 -86 14 -41 62 -182 106 -314 44 -132 85 -249 90 -260 43 -96 45 -143 13 -227 -18 -46 -18 -48 3 -91 29 -59 22 -66 -102 -117 -74 -31 -348 -162 -456 -218 -3 -1 -17 8 -32 22 -41 38 -125 82 -222 115 -49 17 -99 35 -110 40 -70 31 -82 33 -136 17 -59 -18 -73 -13 -128 44 -15 17 -75 53 -132 81 -128 63 -231 138 -327 238 -80 82 -78 78 -56 179 6 31 2 37 -111 152 l-117 119 6 46 c4 26 14 65 22 87 17 49 13 56 -18 34 -37 -26 -71 -20 -93 17 -32 54 -125 145 -181 177 l-54 30 0 68 c0 75 -18 123 -69 187 -26 32 -38 39 -61 37 -31 -4 -96 22 -103 41 -3 7 -32 48 -65 92 -58 78 -141 162 -272 275 -35 30 -77 67 -94 82 -37 33 -47 34 -70 9 -22 -25 -18 -32 69 -123 78 -81 223 -242 300 -333 28 -32 57 -65 65 -73 8 -9 26 -30 40 -47 14 -18 70 -88 125 -156 154 -191 157 -197 105 -224 -53 -28 -72 -20 -156 63 -114 112 -275 288 -335 367 -13 17 -32 39 -42 50 -11 11 -58 67 -105 125 -112 138 -174 210 -296 349 -64 73 -68 92 -36 187 11 32 20 64 20 70 0 24 -102 67 -171 72 -65 4 -69 6 -92 41 -47 71 -221 231 -251 231 -3 0 -6 -17 -6 -38 0 -36 -10 -48 -209 -246 -116 -114 -231 -233 -258 -264 -152 -181 -260 -265 -380 -298 -66 -18 -72 -22 -193 -141 -69 -67 -135 -130 -147 -138 -21 -14 -23 -24 -23 -96 0 -74 -3 -84 -31 -126 -17 -25 -51 -65 -74 -90 l-43 -45 -98 4 -97 3 7 -98 6 -99 -32 -31 c-241 -234 -373 -307 -557 -307 -86 0 -87 0 -105 -30 -20 -35 -101 -102 -157 -131 -47 -23 -74 -24 -161 -3 -63 15 -73 15 -135 1 -38 -9 -93 -18 -123 -19 l-55 -3 -3 92 -3 92 -66 3 -67 3 -83 110 c-46 61 -110 151 -144 200 l-61 90 4 80 c5 91 23 132 72 161 76 44 92 83 102 241 6 84 10 103 23 104 9 1 55 0 103 -1 104 -2 141 12 193 76 20 24 74 83 121 131 139 144 182 199 248 313 32 55 49 72 108 109 38 24 98 69 131 101 34 31 76 65 93 74 31 18 76 81 89 124 4 15 0 41 -10 67 -16 43 -16 44 8 72 48 54 96 119 173 231 86 127 102 156 141 256 15 39 50 105 77 146 63 94 203 289 222 307 8 8 14 33 14 56 0 23 9 85 20 137 15 73 20 135 20 271 0 167 -1 177 -21 195 -12 10 -58 64 -102 119 -45 55 -92 111 -105 125 -13 14 -31 37 -40 52 -9 15 -21 29 -28 32 -33 12 -218 -183 -239 -251 -5 -18 3 -33 38 -70 24 -27 57 -68 72 -93 15 -25 44 -64 64 -86 20 -23 48 -61 63 -85 15 -24 32 -51 38 -59 48 -71 80 -146 80 -190 0 -44 -3 -49 -37 -72 -21 -14 -60 -46 -88 -72 -27 -25 -53 -46 -56 -46 -11 0 -108 146 -132 198 -30 65 -131 177 -152 169 -12 -5 -15 -27 -15 -124 0 -65 -3 -127 -6 -139 -9 -34 -65 -54 -153 -54 -84 0 -163 25 -175 56 -11 27 -7 151 10 312 14 135 15 207 6 540 -10 370 -10 387 9 436 31 82 29 81 122 84 l84 4 48 -67 c44 -62 47 -70 41 -108 -30 -184 -14 -223 64 -157 19 17 39 30 45 30 6 0 28 15 49 34 l38 34 -53 64 c-30 35 -70 83 -89 107 -19 25 -46 56 -60 70 -44 45 -60 74 -60 111 0 69 71 102 153 71 57 -22 63 -4 17 54 -16 20 -32 46 -36 58 -12 41 -54 87 -87 95 -27 6 -38 19 -71 84 -45 86 -68 106 -100 88 -12 -6 -30 -24 -41 -40 -33 -50 -31 -51 -158 126 -92 129 -151 197 -199 230 -24 17 -38 35 -38 48 0 39 -37 118 -101 217 -35 54 -70 100 -78 104 -8 3 -29 -11 -53 -35 l-38 -41 -29 20 c-40 29 -100 97 -112 128 -11 29 -3 85 17 125 29 57 7 109 -66 158 -33 22 -50 27 -79 23 -57 -8 -98 18 -112 69 -17 64 6 251 37 300 30 48 37 78 25 110 -13 35 -71 62 -116 55 -31 -5 -38 -2 -60 27 -14 18 -25 36 -25 39 0 4 -17 35 -39 70 -21 35 -54 92 -73 128 -97 178 -126 232 -175 318 -29 51 -53 96 -53 98 0 8 -165 256 -203 306 -42 55 -42 63 3 162 24 52 50 121 50 131 0 2 -37 4 -82 4 -65 0 -90 4 -115 20 l-33 20 0 95 0 95 52 0 c32 0 68 -8 95 -21 42 -20 45 -20 63 -4 10 9 22 30 25 46 4 16 20 43 36 60 25 27 35 31 69 27 46 -4 47 0 30 93 -8 39 -8 66 1 97 17 63 33 70 264 106 142 22 215 71 225 153 5 43 7 46 50 64 34 13 73 18 161 18 116 1 161 12 197 48 7 7 17 13 20 13 4 0 30 21 58 48 62 57 110 132 119 187 10 51 14 58 28 47 7 -5 30 -15 52 -22z m5086 -4636 c27 -26 34 -27 174 -35 80 -4 155 -11 165 -14 11 -4 23 -18 26 -33 3 -15 15 -58 26 -95 25 -83 20 -137 -16 -220 -31 -70 -57 -83 -125 -67 -120 29 -146 26 -167 -25 -11 -28 -14 -101 -13 -377 1 -443 16 -685 55 -884 6 -31 5 -31 -63 -57 -50 -18 -99 -27 -179 -32 -166 -11 -154 -25 -154 175 0 101 -4 170 -10 172 -14 4 -14 1201 0 1248 5 19 10 64 10 100 0 72 11 119 36 158 16 24 18 25 111 19 86 -5 98 -8 124 -33z m979 16 c11 -6 43 -15 71 -20 29 -6 77 -22 107 -38 53 -27 55 -29 114 -152 33 -69 67 -145 75 -170 8 -24 28 -60 44 -80 27 -32 29 -41 29 -118 0 -56 5 -93 16 -114 9 -18 16 -55 16 -88 0 -33 -7 -70 -16 -88 -9 -17 -16 -50 -16 -74 0 -27 -8 -54 -21 -73 -11 -16 -32 -52 -46 -80 -29 -55 -174 -205 -225 -231 -18 -9 -41 -27 -51 -40 -34 -43 -107 -79 -162 -79 -27 0 -67 -4 -87 -9 l-36 -8 -72 97 c-62 83 -133 214 -196 360 -9 22 -22 83 -29 135 -7 52 -18 122 -25 155 -20 96 -8 247 24 320 88 196 145 269 231 299 27 9 66 32 86 52 50 48 124 68 169 44z m-8478 -97 c42 -43 79 -89 83 -103 11 -34 113 -139 152 -155 18 -8 61 -41 96 -75 35 -34 82 -70 103 -82 57 -29 73 -47 104 -108 15 -30 45 -80 65 -110 54 -80 85 -145 85 -178 0 -16 -22 -74 -50 -130 -58 -119 -85 -142 -166 -142 -28 0 -54 3 -57 6 -4 4 -30 15 -59 25 -43 14 -58 15 -87 6 -30 -10 -37 -17 -39 -43 -2 -23 3 -35 20 -46 13 -9 34 -26 48 -40 14 -13 68 -60 120 -103 117 -98 120 -101 120 -115 0 -19 -80 -166 -138 -252 -30 -46 -74 -52 -107 -15 -11 12 -51 49 -90 82 -86 74 -84 72 -117 117 -16 20 -51 58 -80 85 -29 26 -82 77 -118 113 -36 36 -92 87 -124 114 -55 47 -88 98 -101 158 -3 15 -18 43 -35 61 -16 18 -34 54 -40 79 -10 40 -9 50 9 84 29 56 40 67 94 97 80 44 125 45 247 2 58 -20 119 -40 135 -44 17 -5 60 -22 98 -40 37 -17 79 -31 92 -31 22 0 25 4 25 38 -1 78 -48 139 -180 229 -25 17 -63 50 -85 73 -45 48 -163 128 -214 147 -19 6 -50 27 -69 46 -30 30 -35 44 -44 108 -5 41 -12 91 -15 112 -10 70 46 107 162 107 l80 0 77 -77z m2204 45 c90 -79 85 -170 -13 -273 -43 -44 -63 -76 -78 -119 -18 -52 -25 -62 -67 -84 -38 -21 -48 -32 -58 -67 -16 -58 3 -99 89 -188 39 -41 71 -85 76 -102 15 -64 17 -117 5 -184 -17 -100 -57 -178 -133 -255 -56 -57 -71 -67 -116 -76 -48 -9 -378 -4 -428 6 -23 4 -23 7 -23 142 0 76 7 188 16 248 11 76 14 141 9 213 -3 61 -1 134 5 175 9 57 8 94 -5 191 -29 219 -30 227 -1 282 25 51 86 113 110 113 28 0 127 -52 138 -73 8 -14 13 -77 14 -167 3 -181 1 -170 18 -170 17 0 146 135 146 153 0 7 15 44 34 83 19 38 40 88 47 112 17 58 40 72 116 72 56 0 66 -3 99 -32z m358 -18 c19 -22 39 -52 42 -66 4 -15 4 -103 0 -196 -5 -125 -10 -178 -22 -201 -14 -27 -15 -66 -9 -331 5 -213 12 -312 21 -340 19 -51 18 -179 0 -215 -22 -41 -106 -58 -205 -41 -39 6 -78 19 -86 27 -20 20 -19 62 6 173 18 83 20 103 9 156 -9 46 -9 85 -1 155 14 118 13 466 -2 581 -12 93 0 192 30 251 20 40 98 87 144 87 30 0 43 -7 73 -40z m-1377 -12 c28 -26 44 -127 34 -208 -14 -104 -8 -717 6 -731 7 -7 38 -14 70 -17 91 -7 133 -60 133 -170 0 -64 -31 -127 -81 -163 -31 -22 -37 -22 -302 -20 -149 1 -274 5 -277 9 -3 4 -13 12 -24 17 -28 16 -55 93 -50 140 15 118 25 146 57 166 18 10 48 19 67 19 101 1 108 16 116 262 4 146 2 212 -9 272 -10 57 -11 92 -5 120 6 23 7 73 4 112 -9 94 8 167 42 195 24 18 38 20 113 17 65 -2 92 -7 106 -20z m8145 8 c24 -8 58 -17 75 -21 34 -7 73 -46 73 -73 0 -9 5 -30 11 -47 9 -25 8 -44 -6 -96 -34 -126 -39 -177 -25 -253 7 -39 11 -84 11 -101 -6 -103 -5 -355 2 -361 4 -5 42 -11 84 -14 l77 -5 31 -43 c26 -37 30 -53 30 -106 0 -84 -32 -134 -109 -170 -55 -26 -55 -26 -325 -26 -149 0 -271 1 -271 3 0 1 -11 33 -25 70 -19 54 -22 73 -14 95 6 15 15 51 20 81 12 73 39 101 96 101 58 0 97 21 117 64 23 48 24 418 1 473 -11 26 -15 74 -15 179 0 127 2 149 22 188 13 28 33 51 52 60 38 19 36 19 88 2z m807 -55 c63 -20 101 -44 101 -65 0 -6 7 -24 15 -39 13 -25 13 -33 -1 -68 -13 -32 -15 -65 -10 -187 8 -168 8 -166 6 -366 -2 -178 -2 -178 97 -184 84 -6 136 -35 153 -87 17 -51 4 -94 -44 -143 -77 -81 -81 -82 -303 -90 -109 -4 -245 -5 -303 -2 l-105 5 -4 45 c-5 64 18 200 40 236 17 29 25 32 80 36 48 3 65 10 86 30 23 24 27 38 34 125 13 166 10 282 -10 359 -15 60 -17 92 -12 200 4 75 13 139 20 154 36 66 57 72 160 41z m-3119 -659 l60 -59 0 -96 c0 -93 -1 -98 -29 -129 l-29 -33 -144 -1 c-79 -1 -159 -7 -178 -13 -19 -6 -61 -11 -93 -11 -51 0 -61 3 -87 30 -16 17 -33 42 -36 56 -8 32 1 273 11 297 6 15 28 17 236 17 l229 0 60 -58z"/>
 <path d="M3150 9290 c0 -6 5 -16 10 -23 6 -7 37 -53 71 -104 33 -51 72 -101 86 -113 49 -38 88 -15 42 26 -19 17 -109 168 -109 184 0 4 -8 14 -18 23 -20 19 -82 23 -82 7z"/>
 <path d="M3808 5419 c-18 -10 -24 -35 -10 -41 4 -1 20 -22 35 -46 29 -44 42 -46 56 -8 6 16 1 32 -21 64 -31 45 -34 47 -60 31z"/>
 <path d="M4070 5057 c-14 -6 -27 -12 -29 -14 -8 -5 188 -243 201 -243 15 0 9 87 -8 101 -9 7 -41 48 -72 91 -30 43 -58 78 -61 77 -3 0 -17 -5 -31 -12z"/>
 <path d="M4482 4523 c-21 -8 -52 -90 -52 -138 0 -76 9 -82 46 -29 30 42 74 140 74 164 0 10 -45 12 -68 3z"/>
 <path d="M8890 5033 c-43 -22 -91 -85 -107 -138 -6 -22 -18 -64 -27 -92 -15 -52 -12 -128 10 -251 5 -31 56 -138 97 -203 21 -33 54 -41 121 -28 67 14 90 32 141 114 93 150 96 161 70 235 -8 23 -15 65 -15 92 0 40 -8 64 -41 121 -22 40 -44 79 -48 87 -4 8 -24 27 -44 43 -46 38 -108 45 -157 20z"/>
 <path d="M2304 4545 c-37 -25 -49 -85 -34 -166 15 -78 26 -89 86 -89 45 0 94 40 94 76 0 122 -83 224 -146 179z"/>
 </g>

</svg>